<mxfile host="app.diagrams.net" agent="Mozilla/5.0 (Windows NT 10.0; Win64; x64; rv:138.0) Gecko/20100101 Firefox/138.0" version="27.0.2">
  <diagram id="R2lEEEUBdFMjLlhIrx00" name="Page-1">
    <mxGraphModel dx="1426" dy="799" grid="1" gridSize="10" guides="1" tooltips="1" connect="1" arrows="1" fold="1" page="1" pageScale="1" pageWidth="827" pageHeight="1169" math="0" shadow="0" extFonts="Permanent Marker^https://fonts.googleapis.com/css?family=Permanent+Marker">
      <root>
        <mxCell id="0" />
        <mxCell id="1" parent="0" />
        <mxCell id="rW5Jjkdlr_6XtUSRIuP2-3" value="&lt;font style=&quot;font-size: 18px;&quot;&gt;Cliente&lt;/font&gt;" style="whiteSpace=wrap;html=1;align=center;fillColor=#b0e3e6;strokeColor=#0e8088;" parent="1" vertex="1">
          <mxGeometry x="210" y="170" width="120" height="80" as="geometry" />
        </mxCell>
        <mxCell id="rW5Jjkdlr_6XtUSRIuP2-18" value="&lt;font style=&quot;font-size: 17px;&quot;&gt;Mantenimiento&lt;/font&gt;" style="whiteSpace=wrap;html=1;align=center;fillColor=#b0e3e6;strokeColor=#0e8088;" parent="1" vertex="1">
          <mxGeometry x="414" y="530" width="120" height="80" as="geometry" />
        </mxCell>
        <mxCell id="rW5Jjkdlr_6XtUSRIuP2-19" value="&lt;font style=&quot;font-size: 18px;&quot;&gt;Repuestos&lt;/font&gt;" style="whiteSpace=wrap;html=1;align=center;fillColor=#b0e3e6;strokeColor=#0e8088;" parent="1" vertex="1">
          <mxGeometry x="680" y="520" width="120" height="80" as="geometry" />
        </mxCell>
        <mxCell id="rW5Jjkdlr_6XtUSRIuP2-20" value="Usa" style="shape=rhombus;perimeter=rhombusPerimeter;whiteSpace=wrap;html=1;align=center;fillColor=#fad7ac;strokeColor=#b46504;" parent="1" vertex="1">
          <mxGeometry x="560" y="400" width="120" height="60" as="geometry" />
        </mxCell>
        <mxCell id="rW5Jjkdlr_6XtUSRIuP2-29" value="&lt;font style=&quot;font-size: 18px;&quot;&gt;Productos&lt;/font&gt;" style="whiteSpace=wrap;html=1;align=center;fillColor=#b0e3e6;strokeColor=#0e8088;" parent="1" vertex="1">
          <mxGeometry x="510" y="170" width="120" height="80" as="geometry" />
        </mxCell>
        <mxCell id="rW5Jjkdlr_6XtUSRIuP2-36" value="&lt;font style=&quot;font-size: 18px;&quot;&gt;Empleado&lt;/font&gt;" style="whiteSpace=wrap;html=1;align=center;fillColor=#b0e3e6;strokeColor=#0e8088;" parent="1" vertex="1">
          <mxGeometry x="530" y="930" width="120" height="80" as="geometry" />
        </mxCell>
        <mxCell id="rW5Jjkdlr_6XtUSRIuP2-42" value="Realiza" style="shape=rhombus;perimeter=rhombusPerimeter;whiteSpace=wrap;html=1;align=center;fillColor=#fad7ac;strokeColor=#b46504;" parent="1" vertex="1">
          <mxGeometry x="530" y="780" width="120" height="60" as="geometry" />
        </mxCell>
        <mxCell id="N_7sl9Wl-X2kY1nN6s4H-13" value="1" style="resizable=0;html=1;whiteSpace=wrap;align=right;verticalAlign=bottom;fontSize=18;" parent="1" connectable="0" vertex="1">
          <mxGeometry x="240" y="700" as="geometry" />
        </mxCell>
        <mxCell id="N_7sl9Wl-X2kY1nN6s4H-16" value="" style="endArrow=none;html=1;rounded=0;entryX=0;entryY=0.5;entryDx=0;entryDy=0;exitX=1;exitY=0.25;exitDx=0;exitDy=0;" parent="1" source="bvYkW9q32mAZwuQwSazU-6" target="N_7sl9Wl-X2kY1nN6s4H-24" edge="1">
          <mxGeometry relative="1" as="geometry">
            <mxPoint x="240" y="1040" as="sourcePoint" />
            <mxPoint x="330" y="1080" as="targetPoint" />
            <Array as="points">
              <mxPoint x="250" y="1020" />
            </Array>
          </mxGeometry>
        </mxCell>
        <mxCell id="N_7sl9Wl-X2kY1nN6s4H-17" value="" style="endArrow=none;html=1;rounded=0;entryX=0;entryY=0.5;entryDx=0;entryDy=0;exitX=1;exitY=0.5;exitDx=0;exitDy=0;" parent="1" source="bvYkW9q32mAZwuQwSazU-6" target="N_7sl9Wl-X2kY1nN6s4H-20" edge="1">
          <mxGeometry relative="1" as="geometry">
            <mxPoint x="250" y="1090" as="sourcePoint" />
            <mxPoint x="330" y="1120" as="targetPoint" />
          </mxGeometry>
        </mxCell>
        <mxCell id="N_7sl9Wl-X2kY1nN6s4H-20" value="Recargo" style="ellipse;whiteSpace=wrap;html=1;align=center;" parent="1" vertex="1">
          <mxGeometry x="280" y="1050" width="100" height="40" as="geometry" />
        </mxCell>
        <mxCell id="N_7sl9Wl-X2kY1nN6s4H-21" value="Fecha Devolución" style="ellipse;whiteSpace=wrap;html=1;align=center;" parent="1" vertex="1">
          <mxGeometry x="10" y="650" width="100" height="40" as="geometry" />
        </mxCell>
        <mxCell id="N_7sl9Wl-X2kY1nN6s4H-22" value="Nombre" style="ellipse;whiteSpace=wrap;html=1;align=center;" parent="1" vertex="1">
          <mxGeometry x="720" y="830" width="100" height="40" as="geometry" />
        </mxCell>
        <mxCell id="N_7sl9Wl-X2kY1nN6s4H-24" value="&lt;u&gt;ID_infracción&lt;/u&gt;" style="ellipse;whiteSpace=wrap;html=1;align=center;" parent="1" vertex="1">
          <mxGeometry x="280" y="1000" width="100" height="40" as="geometry" />
        </mxCell>
        <mxCell id="N_7sl9Wl-X2kY1nN6s4H-25" value="nro_comprobante" style="ellipse;whiteSpace=wrap;html=1;align=center;" parent="1" vertex="1">
          <mxGeometry x="10" y="760" width="100" height="40" as="geometry" />
        </mxCell>
        <mxCell id="N_7sl9Wl-X2kY1nN6s4H-27" value="Importe" style="ellipse;whiteSpace=wrap;html=1;align=center;" parent="1" vertex="1">
          <mxGeometry x="10" y="700" width="100" height="40" as="geometry" />
        </mxCell>
        <mxCell id="N_7sl9Wl-X2kY1nN6s4H-28" value="Email" style="ellipse;whiteSpace=wrap;html=1;align=center;" parent="1" vertex="1">
          <mxGeometry x="720" y="1100" width="100" height="40" as="geometry" />
        </mxCell>
        <mxCell id="N_7sl9Wl-X2kY1nN6s4H-29" value="DNI" style="ellipse;whiteSpace=wrap;html=1;align=center;" parent="1" vertex="1">
          <mxGeometry x="10" y="310" width="100" height="40" as="geometry" />
        </mxCell>
        <mxCell id="N_7sl9Wl-X2kY1nN6s4H-30" value="Telefono" style="ellipse;whiteSpace=wrap;html=1;align=center;" parent="1" vertex="1">
          <mxGeometry x="720" y="1040" width="100" height="40" as="geometry" />
        </mxCell>
        <mxCell id="N_7sl9Wl-X2kY1nN6s4H-31" value="Rol" style="ellipse;whiteSpace=wrap;html=1;align=center;" parent="1" vertex="1">
          <mxGeometry x="720" y="990" width="100" height="40" as="geometry" />
        </mxCell>
        <mxCell id="N_7sl9Wl-X2kY1nN6s4H-32" value="&lt;u&gt;ID_empleado&lt;/u&gt;" style="ellipse;whiteSpace=wrap;html=1;align=center;" parent="1" vertex="1">
          <mxGeometry x="720" y="940" width="100" height="40" as="geometry" />
        </mxCell>
        <mxCell id="N_7sl9Wl-X2kY1nN6s4H-33" value="Apellido" style="ellipse;whiteSpace=wrap;html=1;align=center;" parent="1" vertex="1">
          <mxGeometry x="720" y="780" width="100" height="40" as="geometry" />
        </mxCell>
        <mxCell id="N_7sl9Wl-X2kY1nN6s4H-35" value="Nombre" style="ellipse;whiteSpace=wrap;html=1;align=center;" parent="1" vertex="1">
          <mxGeometry x="10" y="260" width="100" height="40" as="geometry" />
        </mxCell>
        <mxCell id="N_7sl9Wl-X2kY1nN6s4H-36" value="DNI" style="ellipse;whiteSpace=wrap;html=1;align=center;" parent="1" vertex="1">
          <mxGeometry x="720" y="880" width="100" height="40" as="geometry" />
        </mxCell>
        <mxCell id="N_7sl9Wl-X2kY1nN6s4H-37" value="&lt;u&gt;ID_cliente&lt;/u&gt;" style="ellipse;whiteSpace=wrap;html=1;align=center;" parent="1" vertex="1">
          <mxGeometry x="10" y="210" width="100" height="40" as="geometry" />
        </mxCell>
        <mxCell id="N_7sl9Wl-X2kY1nN6s4H-38" value="Apellido" style="ellipse;whiteSpace=wrap;html=1;align=center;" parent="1" vertex="1">
          <mxGeometry x="10" y="160" width="100" height="40" as="geometry" />
        </mxCell>
        <mxCell id="N_7sl9Wl-X2kY1nN6s4H-39" value="Telefono" style="ellipse;whiteSpace=wrap;html=1;align=center;" parent="1" vertex="1">
          <mxGeometry x="10" y="110" width="100" height="40" as="geometry" />
        </mxCell>
        <mxCell id="N_7sl9Wl-X2kY1nN6s4H-40" value="Email" style="ellipse;whiteSpace=wrap;html=1;align=center;" parent="1" vertex="1">
          <mxGeometry x="10" y="60" width="100" height="40" as="geometry" />
        </mxCell>
        <mxCell id="N_7sl9Wl-X2kY1nN6s4H-42" value="Cod_Postal" style="ellipse;whiteSpace=wrap;html=1;align=center;" parent="1" vertex="1">
          <mxGeometry x="10" y="10" width="100" height="40" as="geometry" />
        </mxCell>
        <mxCell id="N_7sl9Wl-X2kY1nN6s4H-43" value="&lt;font style=&quot;font-size: 15px;&quot;&gt;Género&lt;/font&gt;" style="whiteSpace=wrap;html=1;align=center;fillColor=#b0e3e6;strokeColor=#0e8088;" parent="1" vertex="1">
          <mxGeometry x="320" y="10" width="100" height="40" as="geometry" />
        </mxCell>
        <mxCell id="N_7sl9Wl-X2kY1nN6s4H-44" value="&lt;u&gt;ID &lt;/u&gt;" style="ellipse;whiteSpace=wrap;html=1;align=center;" parent="1" vertex="1">
          <mxGeometry x="490" y="10" width="100" height="40" as="geometry" />
        </mxCell>
        <mxCell id="N_7sl9Wl-X2kY1nN6s4H-45" value="&lt;u&gt;ID_Producto&lt;/u&gt;" style="ellipse;whiteSpace=wrap;html=1;align=center;" parent="1" vertex="1">
          <mxGeometry x="692" y="120" width="100" height="40" as="geometry" />
        </mxCell>
        <mxCell id="N_7sl9Wl-X2kY1nN6s4H-46" value="Tipo" style="ellipse;whiteSpace=wrap;html=1;align=center;" parent="1" vertex="1">
          <mxGeometry x="690" y="170" width="100" height="40" as="geometry" />
        </mxCell>
        <mxCell id="N_7sl9Wl-X2kY1nN6s4H-47" value="Necesita_Mantener" style="ellipse;whiteSpace=wrap;html=1;align=center;" parent="1" vertex="1">
          <mxGeometry x="684" y="220" width="116" height="60" as="geometry" />
        </mxCell>
        <mxCell id="N_7sl9Wl-X2kY1nN6s4H-49" value="&lt;u&gt;ID_alquiler&lt;/u&gt;" style="ellipse;whiteSpace=wrap;html=1;align=center;" parent="1" vertex="1">
          <mxGeometry x="10" y="450" width="100" height="40" as="geometry" />
        </mxCell>
        <mxCell id="N_7sl9Wl-X2kY1nN6s4H-50" value="Metodo de pago" style="ellipse;whiteSpace=wrap;html=1;align=center;" parent="1" vertex="1">
          <mxGeometry x="10" y="500" width="100" height="40" as="geometry" />
        </mxCell>
        <mxCell id="N_7sl9Wl-X2kY1nN6s4H-51" value="Fecha_Desde" style="ellipse;whiteSpace=wrap;html=1;align=center;" parent="1" vertex="1">
          <mxGeometry x="10" y="550" width="100" height="40" as="geometry" />
        </mxCell>
        <mxCell id="N_7sl9Wl-X2kY1nN6s4H-52" value="Fecha_Hasta" style="ellipse;whiteSpace=wrap;html=1;align=center;" parent="1" vertex="1">
          <mxGeometry x="10" y="600" width="100" height="40" as="geometry" />
        </mxCell>
        <mxCell id="N_7sl9Wl-X2kY1nN6s4H-58" value="&lt;u&gt;ID_Repuesto&lt;/u&gt;" style="ellipse;whiteSpace=wrap;html=1;align=center;" parent="1" vertex="1">
          <mxGeometry x="720" y="620" width="100" height="40" as="geometry" />
        </mxCell>
        <mxCell id="N_7sl9Wl-X2kY1nN6s4H-59" value="Nombre_Rep" style="ellipse;whiteSpace=wrap;html=1;align=center;" parent="1" vertex="1">
          <mxGeometry x="620" y="640" width="100" height="40" as="geometry" />
        </mxCell>
        <mxCell id="N_7sl9Wl-X2kY1nN6s4H-60" value="&lt;u&gt;Número&lt;/u&gt;" style="ellipse;whiteSpace=wrap;html=1;align=center;" parent="1" vertex="1">
          <mxGeometry x="360" y="650" width="100" height="40" as="geometry" />
        </mxCell>
        <mxCell id="N_7sl9Wl-X2kY1nN6s4H-61" value="Tipo" style="ellipse;whiteSpace=wrap;html=1;align=center;" parent="1" vertex="1">
          <mxGeometry x="380" y="700" width="100" height="40" as="geometry" />
        </mxCell>
        <mxCell id="N_7sl9Wl-X2kY1nN6s4H-62" value="Fecha" style="ellipse;whiteSpace=wrap;html=1;align=center;" parent="1" vertex="1">
          <mxGeometry x="390" y="760" width="100" height="40" as="geometry" />
        </mxCell>
        <mxCell id="N_7sl9Wl-X2kY1nN6s4H-63" value="Tiene" style="shape=rhombus;perimeter=rhombusPerimeter;whiteSpace=wrap;html=1;align=center;fillColor=#fad7ac;strokeColor=#b46504;" parent="1" vertex="1">
          <mxGeometry x="260" y="80" width="120" height="60" as="geometry" />
        </mxCell>
        <mxCell id="N_7sl9Wl-X2kY1nN6s4H-64" value="" style="endArrow=none;html=1;rounded=0;exitX=1;exitY=0;exitDx=0;exitDy=0;entryX=0;entryY=0.5;entryDx=0;entryDy=0;" parent="1" source="rW5Jjkdlr_6XtUSRIuP2-36" edge="1">
          <mxGeometry relative="1" as="geometry">
            <mxPoint x="670" y="800" as="sourcePoint" />
            <mxPoint x="720" y="800" as="targetPoint" />
          </mxGeometry>
        </mxCell>
        <mxCell id="N_7sl9Wl-X2kY1nN6s4H-65" value="" style="endArrow=none;html=1;rounded=0;entryX=0;entryY=0.5;entryDx=0;entryDy=0;" parent="1" target="N_7sl9Wl-X2kY1nN6s4H-22" edge="1">
          <mxGeometry relative="1" as="geometry">
            <mxPoint x="650" y="941" as="sourcePoint" />
            <mxPoint x="730" y="810" as="targetPoint" />
          </mxGeometry>
        </mxCell>
        <mxCell id="N_7sl9Wl-X2kY1nN6s4H-66" value="" style="endArrow=none;html=1;rounded=0;entryX=0.006;entryY=0.647;entryDx=0;entryDy=0;entryPerimeter=0;" parent="1" target="N_7sl9Wl-X2kY1nN6s4H-36" edge="1">
          <mxGeometry relative="1" as="geometry">
            <mxPoint x="650" y="950" as="sourcePoint" />
            <mxPoint x="740" y="820" as="targetPoint" />
          </mxGeometry>
        </mxCell>
        <mxCell id="N_7sl9Wl-X2kY1nN6s4H-68" value="" style="endArrow=none;html=1;rounded=0;exitX=1;exitY=0.5;exitDx=0;exitDy=0;entryX=0;entryY=0.5;entryDx=0;entryDy=0;" parent="1" source="rW5Jjkdlr_6XtUSRIuP2-36" target="N_7sl9Wl-X2kY1nN6s4H-32" edge="1">
          <mxGeometry relative="1" as="geometry">
            <mxPoint x="660" y="960" as="sourcePoint" />
            <mxPoint x="731" y="916" as="targetPoint" />
          </mxGeometry>
        </mxCell>
        <mxCell id="N_7sl9Wl-X2kY1nN6s4H-69" value="" style="endArrow=none;html=1;rounded=0;exitX=1.009;exitY=0.633;exitDx=0;exitDy=0;entryX=0;entryY=0.5;entryDx=0;entryDy=0;exitPerimeter=0;" parent="1" source="rW5Jjkdlr_6XtUSRIuP2-36" target="N_7sl9Wl-X2kY1nN6s4H-31" edge="1">
          <mxGeometry relative="1" as="geometry">
            <mxPoint x="670" y="970" as="sourcePoint" />
            <mxPoint x="741" y="926" as="targetPoint" />
          </mxGeometry>
        </mxCell>
        <mxCell id="N_7sl9Wl-X2kY1nN6s4H-70" value="" style="endArrow=none;html=1;rounded=0;exitX=1;exitY=1;exitDx=0;exitDy=0;entryX=0;entryY=0.5;entryDx=0;entryDy=0;" parent="1" source="rW5Jjkdlr_6XtUSRIuP2-36" target="N_7sl9Wl-X2kY1nN6s4H-30" edge="1">
          <mxGeometry relative="1" as="geometry">
            <mxPoint x="680" y="980" as="sourcePoint" />
            <mxPoint x="751" y="936" as="targetPoint" />
          </mxGeometry>
        </mxCell>
        <mxCell id="N_7sl9Wl-X2kY1nN6s4H-71" value="" style="endArrow=none;html=1;rounded=0;exitX=0.806;exitY=1.014;exitDx=0;exitDy=0;entryX=0;entryY=0.5;entryDx=0;entryDy=0;exitPerimeter=0;" parent="1" source="rW5Jjkdlr_6XtUSRIuP2-36" target="N_7sl9Wl-X2kY1nN6s4H-28" edge="1">
          <mxGeometry relative="1" as="geometry">
            <mxPoint x="690" y="990" as="sourcePoint" />
            <mxPoint x="761" y="946" as="targetPoint" />
          </mxGeometry>
        </mxCell>
        <mxCell id="N_7sl9Wl-X2kY1nN6s4H-72" value="" style="endArrow=none;html=1;rounded=0;exitX=0.449;exitY=-0.049;exitDx=0;exitDy=0;entryX=0;entryY=1;entryDx=0;entryDy=0;exitPerimeter=0;" parent="1" source="N_7sl9Wl-X2kY1nN6s4H-59" target="rW5Jjkdlr_6XtUSRIuP2-19" edge="1">
          <mxGeometry relative="1" as="geometry">
            <mxPoint x="607" y="604" as="sourcePoint" />
            <mxPoint x="678" y="560" as="targetPoint" />
          </mxGeometry>
        </mxCell>
        <mxCell id="N_7sl9Wl-X2kY1nN6s4H-73" value="" style="endArrow=none;html=1;rounded=0;entryX=0.75;entryY=1;entryDx=0;entryDy=0;" parent="1" source="N_7sl9Wl-X2kY1nN6s4H-58" target="rW5Jjkdlr_6XtUSRIuP2-19" edge="1">
          <mxGeometry relative="1" as="geometry">
            <mxPoint x="662" y="628" as="sourcePoint" />
            <mxPoint x="690" y="610" as="targetPoint" />
          </mxGeometry>
        </mxCell>
        <mxCell id="N_7sl9Wl-X2kY1nN6s4H-75" value="" style="endArrow=none;html=1;rounded=0;entryX=0.25;entryY=1;entryDx=0;entryDy=0;exitX=0.5;exitY=0;exitDx=0;exitDy=0;" parent="1" source="N_7sl9Wl-X2kY1nN6s4H-60" target="rW5Jjkdlr_6XtUSRIuP2-18" edge="1">
          <mxGeometry relative="1" as="geometry">
            <mxPoint x="440" y="670" as="sourcePoint" />
            <mxPoint x="480" y="650" as="targetPoint" />
          </mxGeometry>
        </mxCell>
        <mxCell id="N_7sl9Wl-X2kY1nN6s4H-77" value="" style="endArrow=none;html=1;rounded=0;entryX=0.5;entryY=1;entryDx=0;entryDy=0;exitX=1;exitY=0;exitDx=0;exitDy=0;" parent="1" source="N_7sl9Wl-X2kY1nN6s4H-61" target="rW5Jjkdlr_6XtUSRIuP2-18" edge="1">
          <mxGeometry relative="1" as="geometry">
            <mxPoint x="400" y="640" as="sourcePoint" />
            <mxPoint x="454" y="620" as="targetPoint" />
          </mxGeometry>
        </mxCell>
        <mxCell id="N_7sl9Wl-X2kY1nN6s4H-78" value="" style="endArrow=none;html=1;rounded=0;entryX=0.75;entryY=1;entryDx=0;entryDy=0;exitX=1;exitY=0.5;exitDx=0;exitDy=0;" parent="1" source="N_7sl9Wl-X2kY1nN6s4H-62" target="rW5Jjkdlr_6XtUSRIuP2-18" edge="1">
          <mxGeometry relative="1" as="geometry">
            <mxPoint x="410" y="650" as="sourcePoint" />
            <mxPoint x="464" y="630" as="targetPoint" />
          </mxGeometry>
        </mxCell>
        <mxCell id="N_7sl9Wl-X2kY1nN6s4H-82" value="" style="endArrow=none;html=1;rounded=0;entryX=0.192;entryY=-0.012;entryDx=0;entryDy=0;exitX=1;exitY=0.5;exitDx=0;exitDy=0;entryPerimeter=0;" parent="1" source="N_7sl9Wl-X2kY1nN6s4H-49" target="bvYkW9q32mAZwuQwSazU-34" edge="1">
          <mxGeometry relative="1" as="geometry">
            <mxPoint x="136" y="490" as="sourcePoint" />
            <mxPoint x="180" y="590" as="targetPoint" />
          </mxGeometry>
        </mxCell>
        <mxCell id="N_7sl9Wl-X2kY1nN6s4H-83" value="" style="endArrow=none;html=1;rounded=0;exitX=0.964;exitY=0.663;exitDx=0;exitDy=0;exitPerimeter=0;entryX=0;entryY=0;entryDx=0;entryDy=0;" parent="1" source="N_7sl9Wl-X2kY1nN6s4H-50" target="bvYkW9q32mAZwuQwSazU-34" edge="1">
          <mxGeometry relative="1" as="geometry">
            <mxPoint x="130" y="545" as="sourcePoint" />
            <mxPoint x="150" y="590" as="targetPoint" />
          </mxGeometry>
        </mxCell>
        <mxCell id="N_7sl9Wl-X2kY1nN6s4H-84" value="" style="endArrow=none;html=1;rounded=0;entryX=0;entryY=0.25;entryDx=0;entryDy=0;exitX=1;exitY=0.5;exitDx=0;exitDy=0;" parent="1" source="N_7sl9Wl-X2kY1nN6s4H-51" target="bvYkW9q32mAZwuQwSazU-34" edge="1">
          <mxGeometry relative="1" as="geometry">
            <mxPoint x="140" y="585" as="sourcePoint" />
            <mxPoint x="150" y="610" as="targetPoint" />
          </mxGeometry>
        </mxCell>
        <mxCell id="N_7sl9Wl-X2kY1nN6s4H-85" value="" style="endArrow=none;html=1;rounded=0;entryX=0;entryY=0.5;entryDx=0;entryDy=0;exitX=1;exitY=0.5;exitDx=0;exitDy=0;" parent="1" source="N_7sl9Wl-X2kY1nN6s4H-52" target="bvYkW9q32mAZwuQwSazU-34" edge="1">
          <mxGeometry relative="1" as="geometry">
            <mxPoint x="160" y="510" as="sourcePoint" />
            <mxPoint x="150" y="630" as="targetPoint" />
          </mxGeometry>
        </mxCell>
        <mxCell id="N_7sl9Wl-X2kY1nN6s4H-86" value="" style="endArrow=none;html=1;rounded=0;entryX=0.25;entryY=0;entryDx=0;entryDy=0;exitX=1.016;exitY=0.691;exitDx=0;exitDy=0;exitPerimeter=0;" parent="1" source="N_7sl9Wl-X2kY1nN6s4H-42" target="rW5Jjkdlr_6XtUSRIuP2-3" edge="1">
          <mxGeometry relative="1" as="geometry">
            <mxPoint x="110" y="30" as="sourcePoint" />
            <mxPoint x="170" y="80" as="targetPoint" />
          </mxGeometry>
        </mxCell>
        <mxCell id="N_7sl9Wl-X2kY1nN6s4H-87" value="" style="endArrow=none;html=1;rounded=0;entryX=0;entryY=0;entryDx=0;entryDy=0;exitX=1;exitY=0.5;exitDx=0;exitDy=0;" parent="1" source="N_7sl9Wl-X2kY1nN6s4H-40" target="rW5Jjkdlr_6XtUSRIuP2-3" edge="1">
          <mxGeometry relative="1" as="geometry">
            <mxPoint x="120" y="100" as="sourcePoint" />
            <mxPoint x="180" y="150" as="targetPoint" />
          </mxGeometry>
        </mxCell>
        <mxCell id="N_7sl9Wl-X2kY1nN6s4H-88" value="" style="endArrow=none;html=1;rounded=0;entryX=0;entryY=0.25;entryDx=0;entryDy=0;exitX=1;exitY=0.5;exitDx=0;exitDy=0;" parent="1" source="N_7sl9Wl-X2kY1nN6s4H-39" target="rW5Jjkdlr_6XtUSRIuP2-3" edge="1">
          <mxGeometry relative="1" as="geometry">
            <mxPoint x="120" y="165" as="sourcePoint" />
            <mxPoint x="220" y="255" as="targetPoint" />
          </mxGeometry>
        </mxCell>
        <mxCell id="N_7sl9Wl-X2kY1nN6s4H-89" value="" style="endArrow=none;html=1;rounded=0;entryX=0;entryY=0.5;entryDx=0;entryDy=0;exitX=1;exitY=0.5;exitDx=0;exitDy=0;" parent="1" source="N_7sl9Wl-X2kY1nN6s4H-38" target="rW5Jjkdlr_6XtUSRIuP2-3" edge="1">
          <mxGeometry relative="1" as="geometry">
            <mxPoint x="110" y="185" as="sourcePoint" />
            <mxPoint x="210" y="275" as="targetPoint" />
          </mxGeometry>
        </mxCell>
        <mxCell id="N_7sl9Wl-X2kY1nN6s4H-90" value="" style="endArrow=none;html=1;rounded=0;entryX=0;entryY=0.75;entryDx=0;entryDy=0;exitX=1;exitY=0.5;exitDx=0;exitDy=0;" parent="1" source="N_7sl9Wl-X2kY1nN6s4H-37" target="rW5Jjkdlr_6XtUSRIuP2-3" edge="1">
          <mxGeometry relative="1" as="geometry">
            <mxPoint x="140" y="240" as="sourcePoint" />
            <mxPoint x="240" y="330" as="targetPoint" />
          </mxGeometry>
        </mxCell>
        <mxCell id="N_7sl9Wl-X2kY1nN6s4H-91" value="" style="endArrow=none;html=1;rounded=0;entryX=0;entryY=1;entryDx=0;entryDy=0;exitX=1;exitY=0.5;exitDx=0;exitDy=0;" parent="1" source="N_7sl9Wl-X2kY1nN6s4H-35" target="rW5Jjkdlr_6XtUSRIuP2-3" edge="1">
          <mxGeometry relative="1" as="geometry">
            <mxPoint x="130" y="285" as="sourcePoint" />
            <mxPoint x="230" y="375" as="targetPoint" />
          </mxGeometry>
        </mxCell>
        <mxCell id="N_7sl9Wl-X2kY1nN6s4H-93" value="" style="endArrow=none;html=1;rounded=0;entryX=0.193;entryY=1.021;entryDx=0;entryDy=0;exitX=1;exitY=0.5;exitDx=0;exitDy=0;entryPerimeter=0;" parent="1" source="N_7sl9Wl-X2kY1nN6s4H-29" target="rW5Jjkdlr_6XtUSRIuP2-3" edge="1">
          <mxGeometry relative="1" as="geometry">
            <mxPoint x="170" y="300" as="sourcePoint" />
            <mxPoint x="270" y="390" as="targetPoint" />
          </mxGeometry>
        </mxCell>
        <mxCell id="N_7sl9Wl-X2kY1nN6s4H-94" value="" style="endArrow=none;html=1;rounded=0;entryX=0;entryY=0.5;entryDx=0;entryDy=0;exitX=1;exitY=0.5;exitDx=0;exitDy=0;" parent="1" source="N_7sl9Wl-X2kY1nN6s4H-43" target="N_7sl9Wl-X2kY1nN6s4H-44" edge="1">
          <mxGeometry relative="1" as="geometry">
            <mxPoint x="440" y="50" as="sourcePoint" />
            <mxPoint x="568" y="182" as="targetPoint" />
          </mxGeometry>
        </mxCell>
        <mxCell id="N_7sl9Wl-X2kY1nN6s4H-95" value="" style="endArrow=none;html=1;rounded=0;entryX=0;entryY=0.5;entryDx=0;entryDy=0;exitX=1;exitY=0;exitDx=0;exitDy=0;" parent="1" source="rW5Jjkdlr_6XtUSRIuP2-29" target="N_7sl9Wl-X2kY1nN6s4H-45" edge="1">
          <mxGeometry relative="1" as="geometry">
            <mxPoint x="610" y="140" as="sourcePoint" />
            <mxPoint x="680" y="140" as="targetPoint" />
          </mxGeometry>
        </mxCell>
        <mxCell id="N_7sl9Wl-X2kY1nN6s4H-96" value="" style="endArrow=none;html=1;rounded=0;entryX=0;entryY=0.5;entryDx=0;entryDy=0;exitX=1;exitY=0.25;exitDx=0;exitDy=0;" parent="1" source="rW5Jjkdlr_6XtUSRIuP2-29" target="N_7sl9Wl-X2kY1nN6s4H-46" edge="1">
          <mxGeometry relative="1" as="geometry">
            <mxPoint x="637" y="200" as="sourcePoint" />
            <mxPoint x="707" y="200" as="targetPoint" />
          </mxGeometry>
        </mxCell>
        <mxCell id="N_7sl9Wl-X2kY1nN6s4H-97" value="" style="endArrow=none;html=1;rounded=0;entryX=0;entryY=0.5;entryDx=0;entryDy=0;exitX=1;exitY=0.75;exitDx=0;exitDy=0;" parent="1" source="rW5Jjkdlr_6XtUSRIuP2-29" target="N_7sl9Wl-X2kY1nN6s4H-47" edge="1">
          <mxGeometry relative="1" as="geometry">
            <mxPoint x="650" y="229.57" as="sourcePoint" />
            <mxPoint x="720" y="229.57" as="targetPoint" />
          </mxGeometry>
        </mxCell>
        <mxCell id="N_7sl9Wl-X2kY1nN6s4H-108" value="" style="endArrow=none;html=1;rounded=0;exitX=0.5;exitY=0;exitDx=0;exitDy=0;entryX=1;entryY=1;entryDx=0;entryDy=0;" parent="1" source="rW5Jjkdlr_6XtUSRIuP2-42" target="rW5Jjkdlr_6XtUSRIuP2-18" edge="1">
          <mxGeometry relative="1" as="geometry">
            <mxPoint x="560" y="750" as="sourcePoint" />
            <mxPoint x="720" y="750" as="targetPoint" />
          </mxGeometry>
        </mxCell>
        <mxCell id="N_7sl9Wl-X2kY1nN6s4H-109" value="" style="endArrow=none;html=1;rounded=0;exitX=0.5;exitY=0;exitDx=0;exitDy=0;entryX=0.5;entryY=1;entryDx=0;entryDy=0;" parent="1" source="rW5Jjkdlr_6XtUSRIuP2-36" target="rW5Jjkdlr_6XtUSRIuP2-42" edge="1">
          <mxGeometry relative="1" as="geometry">
            <mxPoint x="598" y="1020" as="sourcePoint" />
            <mxPoint x="542" y="850" as="targetPoint" />
          </mxGeometry>
        </mxCell>
        <mxCell id="N_7sl9Wl-X2kY1nN6s4H-110" value="M" style="resizable=0;html=1;whiteSpace=wrap;align=right;verticalAlign=bottom;fontSize=18;" parent="1" connectable="0" vertex="1">
          <mxGeometry x="559.9957912120145" y="630.001389614199" as="geometry" />
        </mxCell>
        <mxCell id="N_7sl9Wl-X2kY1nN6s4H-111" value="M" style="resizable=0;html=1;whiteSpace=wrap;align=right;verticalAlign=bottom;fontSize=18;" parent="1" connectable="0" vertex="1">
          <mxGeometry x="579.9957912120145" y="920.001389614199" as="geometry" />
        </mxCell>
        <mxCell id="N_7sl9Wl-X2kY1nN6s4H-112" value="" style="endArrow=none;html=1;rounded=0;exitX=0;exitY=0.5;exitDx=0;exitDy=0;entryX=0.5;entryY=0;entryDx=0;entryDy=0;" parent="1" source="rW5Jjkdlr_6XtUSRIuP2-20" target="rW5Jjkdlr_6XtUSRIuP2-18" edge="1">
          <mxGeometry relative="1" as="geometry">
            <mxPoint x="590" y="590" as="sourcePoint" />
            <mxPoint x="534" y="420" as="targetPoint" />
          </mxGeometry>
        </mxCell>
        <mxCell id="N_7sl9Wl-X2kY1nN6s4H-113" value="" style="endArrow=none;html=1;rounded=0;exitX=0.5;exitY=0;exitDx=0;exitDy=0;entryX=1;entryY=0.5;entryDx=0;entryDy=0;" parent="1" source="rW5Jjkdlr_6XtUSRIuP2-19" target="rW5Jjkdlr_6XtUSRIuP2-20" edge="1">
          <mxGeometry relative="1" as="geometry">
            <mxPoint x="756" y="430" as="sourcePoint" />
            <mxPoint x="670" y="530" as="targetPoint" />
          </mxGeometry>
        </mxCell>
        <mxCell id="N_7sl9Wl-X2kY1nN6s4H-115" value="M" style="resizable=0;html=1;whiteSpace=wrap;align=right;verticalAlign=bottom;fontSize=18;" parent="1" connectable="0" vertex="1">
          <mxGeometry x="519.9957912120145" y="530.001389614199" as="geometry" />
        </mxCell>
        <mxCell id="N_7sl9Wl-X2kY1nN6s4H-116" value="M" style="resizable=0;html=1;whiteSpace=wrap;align=right;verticalAlign=bottom;fontSize=18;" parent="1" connectable="0" vertex="1">
          <mxGeometry x="756.9957912120146" y="520.001389614199" as="geometry" />
        </mxCell>
        <mxCell id="N_7sl9Wl-X2kY1nN6s4H-117" value="" style="endArrow=none;html=1;rounded=0;exitX=0.5;exitY=0;exitDx=0;exitDy=0;entryX=0.5;entryY=1;entryDx=0;entryDy=0;" parent="1" source="rW5Jjkdlr_6XtUSRIuP2-20" target="rW5Jjkdlr_6XtUSRIuP2-29" edge="1">
          <mxGeometry relative="1" as="geometry">
            <mxPoint x="613" y="350" as="sourcePoint" />
            <mxPoint x="527" y="450" as="targetPoint" />
          </mxGeometry>
        </mxCell>
        <mxCell id="N_7sl9Wl-X2kY1nN6s4H-118" value="1" style="resizable=0;html=1;whiteSpace=wrap;align=right;verticalAlign=bottom;fontSize=18;" parent="1" connectable="0" vertex="1">
          <mxGeometry x="570" y="280.0000000000001" as="geometry" />
        </mxCell>
        <mxCell id="N_7sl9Wl-X2kY1nN6s4H-121" value="" style="endArrow=none;html=1;rounded=0;exitX=0.5;exitY=1;exitDx=0;exitDy=0;entryX=1;entryY=0;entryDx=0;entryDy=0;" parent="1" source="N_7sl9Wl-X2kY1nN6s4H-63" target="rW5Jjkdlr_6XtUSRIuP2-3" edge="1">
          <mxGeometry relative="1" as="geometry">
            <mxPoint x="480" y="250" as="sourcePoint" />
            <mxPoint x="370" y="150" as="targetPoint" />
          </mxGeometry>
        </mxCell>
        <mxCell id="N_7sl9Wl-X2kY1nN6s4H-122" value="" style="endArrow=none;html=1;rounded=0;exitX=0;exitY=1;exitDx=0;exitDy=0;entryX=0.5;entryY=0;entryDx=0;entryDy=0;" parent="1" source="N_7sl9Wl-X2kY1nN6s4H-43" target="N_7sl9Wl-X2kY1nN6s4H-63" edge="1">
          <mxGeometry relative="1" as="geometry">
            <mxPoint x="330" y="150" as="sourcePoint" />
            <mxPoint x="340" y="180" as="targetPoint" />
          </mxGeometry>
        </mxCell>
        <mxCell id="N_7sl9Wl-X2kY1nN6s4H-123" value="1" style="resizable=0;html=1;whiteSpace=wrap;align=right;verticalAlign=bottom;fontSize=18;" parent="1" connectable="0" vertex="1">
          <mxGeometry x="310" y="70.00000000000011" as="geometry" />
        </mxCell>
        <mxCell id="N_7sl9Wl-X2kY1nN6s4H-124" value="M" style="resizable=0;html=1;whiteSpace=wrap;align=right;verticalAlign=bottom;fontSize=18;" parent="1" connectable="0" vertex="1">
          <mxGeometry x="350.1570675972798" y="169.99562534223975" as="geometry" />
        </mxCell>
        <mxCell id="N_7sl9Wl-X2kY1nN6s4H-131" value="M" style="resizable=0;html=1;whiteSpace=wrap;align=right;verticalAlign=bottom;fontSize=18;" parent="1" connectable="0" vertex="1">
          <mxGeometry x="239.99706759727985" y="569.9956253422397" as="geometry" />
        </mxCell>
        <mxCell id="N_7sl9Wl-X2kY1nN6s4H-132" value="1" style="resizable=0;html=1;whiteSpace=wrap;align=right;verticalAlign=bottom;fontSize=18;" parent="1" connectable="0" vertex="1">
          <mxGeometry x="280" y="290.0000000000001" as="geometry" />
        </mxCell>
        <mxCell id="N_7sl9Wl-X2kY1nN6s4H-134" value="M" style="resizable=0;html=1;whiteSpace=wrap;align=right;verticalAlign=bottom;fontSize=18;" parent="1" connectable="0" vertex="1">
          <mxGeometry x="499.99706759727985" y="259.99562534223975" as="geometry" />
        </mxCell>
        <mxCell id="bvYkW9q32mAZwuQwSazU-2" value="" style="endArrow=none;html=1;rounded=0;entryX=0;entryY=0.75;entryDx=0;entryDy=0;exitX=1;exitY=0.5;exitDx=0;exitDy=0;" parent="1" source="N_7sl9Wl-X2kY1nN6s4H-21" target="bvYkW9q32mAZwuQwSazU-34" edge="1">
          <mxGeometry relative="1" as="geometry">
            <mxPoint x="120" y="670" as="sourcePoint" />
            <mxPoint x="150" y="650" as="targetPoint" />
            <Array as="points">
              <mxPoint x="120" y="650" />
            </Array>
          </mxGeometry>
        </mxCell>
        <mxCell id="bvYkW9q32mAZwuQwSazU-3" value="" style="endArrow=none;html=1;rounded=0;entryX=0;entryY=1;entryDx=0;entryDy=0;exitX=1;exitY=0.5;exitDx=0;exitDy=0;" parent="1" source="N_7sl9Wl-X2kY1nN6s4H-27" target="bvYkW9q32mAZwuQwSazU-34" edge="1">
          <mxGeometry relative="1" as="geometry">
            <mxPoint x="130" y="670" as="sourcePoint" />
            <mxPoint x="150" y="670" as="targetPoint" />
            <Array as="points">
              <mxPoint x="120" y="690" />
            </Array>
          </mxGeometry>
        </mxCell>
        <mxCell id="bvYkW9q32mAZwuQwSazU-4" value="" style="endArrow=none;html=1;rounded=0;entryX=1;entryY=0.5;entryDx=0;entryDy=0;exitX=0.25;exitY=1;exitDx=0;exitDy=0;exitPerimeter=0;" parent="1" source="bvYkW9q32mAZwuQwSazU-34" target="N_7sl9Wl-X2kY1nN6s4H-25" edge="1">
          <mxGeometry relative="1" as="geometry">
            <mxPoint x="180" y="670" as="sourcePoint" />
            <mxPoint x="260" y="730" as="targetPoint" />
            <Array as="points">
              <mxPoint x="130" y="720" />
            </Array>
          </mxGeometry>
        </mxCell>
        <mxCell id="bvYkW9q32mAZwuQwSazU-6" value="&lt;font style=&quot;font-size: 18px;&quot;&gt;Infracción&lt;/font&gt;" style="whiteSpace=wrap;html=1;align=center;fillColor=#b0e3e6;strokeColor=#0e8088;" parent="1" vertex="1">
          <mxGeometry x="100" y="1030" width="120" height="80" as="geometry" />
        </mxCell>
        <mxCell id="bvYkW9q32mAZwuQwSazU-7" value="Descripción" style="ellipse;whiteSpace=wrap;html=1;align=center;" parent="1" vertex="1">
          <mxGeometry x="280" y="1100" width="100" height="40" as="geometry" />
        </mxCell>
        <mxCell id="bvYkW9q32mAZwuQwSazU-9" value="" style="endArrow=none;html=1;rounded=0;entryX=0;entryY=0.5;entryDx=0;entryDy=0;exitX=1;exitY=0.75;exitDx=0;exitDy=0;" parent="1" source="bvYkW9q32mAZwuQwSazU-6" target="bvYkW9q32mAZwuQwSazU-7" edge="1">
          <mxGeometry relative="1" as="geometry">
            <mxPoint x="200" y="1139" as="sourcePoint" />
            <mxPoint x="260" y="1139" as="targetPoint" />
            <Array as="points">
              <mxPoint x="240" y="1120" />
            </Array>
          </mxGeometry>
        </mxCell>
        <mxCell id="bvYkW9q32mAZwuQwSazU-11" value="" style="endArrow=none;html=1;rounded=0;entryX=0.5;entryY=0;entryDx=0;entryDy=0;exitX=0.5;exitY=1;exitDx=0;exitDy=0;" parent="1" source="bvYkW9q32mAZwuQwSazU-15" target="bvYkW9q32mAZwuQwSazU-6" edge="1">
          <mxGeometry relative="1" as="geometry">
            <mxPoint x="210" y="920" as="sourcePoint" />
            <mxPoint x="230" y="960" as="targetPoint" />
          </mxGeometry>
        </mxCell>
        <mxCell id="bvYkW9q32mAZwuQwSazU-12" value="&lt;font style=&quot;font-size: 17px;&quot;&gt;M&lt;/font&gt;" style="resizable=0;html=1;whiteSpace=wrap;align=right;verticalAlign=bottom;" parent="bvYkW9q32mAZwuQwSazU-11" connectable="0" vertex="1">
          <mxGeometry x="1" relative="1" as="geometry">
            <mxPoint y="-10" as="offset" />
          </mxGeometry>
        </mxCell>
        <mxCell id="bvYkW9q32mAZwuQwSazU-13" value="" style="endArrow=none;html=1;rounded=0;exitX=0.5;exitY=1;exitDx=0;exitDy=0;entryX=0.5;entryY=0;entryDx=0;entryDy=0;" parent="1" source="bvYkW9q32mAZwuQwSazU-34" target="bvYkW9q32mAZwuQwSazU-15" edge="1">
          <mxGeometry relative="1" as="geometry">
            <mxPoint x="210" y="670" as="sourcePoint" />
            <mxPoint x="210" y="850" as="targetPoint" />
          </mxGeometry>
        </mxCell>
        <mxCell id="bvYkW9q32mAZwuQwSazU-15" value="Tiene" style="shape=rhombus;perimeter=rhombusPerimeter;whiteSpace=wrap;html=1;align=center;fillColor=#fad7ac;strokeColor=#b46504;" parent="1" vertex="1">
          <mxGeometry x="160" y="840" width="120" height="60" as="geometry" />
        </mxCell>
        <mxCell id="bvYkW9q32mAZwuQwSazU-17" value="Genera" style="shape=rhombus;perimeter=rhombusPerimeter;whiteSpace=wrap;html=1;align=center;fillColor=#fad7ac;strokeColor=#b46504;" parent="1" vertex="1">
          <mxGeometry x="350" y="900" width="120" height="60" as="geometry" />
        </mxCell>
        <mxCell id="bvYkW9q32mAZwuQwSazU-18" value="Realiza" style="shape=rhombus;perimeter=rhombusPerimeter;whiteSpace=wrap;html=1;align=center;fillColor=#fad7ac;strokeColor=#b46504;" parent="1" vertex="1">
          <mxGeometry x="170" y="390" width="120" height="60" as="geometry" />
        </mxCell>
        <mxCell id="bvYkW9q32mAZwuQwSazU-19" value="Tiene" style="shape=rhombus;perimeter=rhombusPerimeter;whiteSpace=wrap;html=1;align=center;fillColor=#fad7ac;strokeColor=#b46504;" parent="1" vertex="1">
          <mxGeometry x="360" y="340" width="120" height="60" as="geometry" />
        </mxCell>
        <mxCell id="bvYkW9q32mAZwuQwSazU-20" value="" style="endArrow=none;html=1;rounded=0;exitX=0.5;exitY=1;exitDx=0;exitDy=0;entryX=0.5;entryY=0;entryDx=0;entryDy=0;" parent="1" source="bvYkW9q32mAZwuQwSazU-18" edge="1">
          <mxGeometry relative="1" as="geometry">
            <mxPoint x="290" y="465" as="sourcePoint" />
            <mxPoint x="210" y="590" as="targetPoint" />
          </mxGeometry>
        </mxCell>
        <mxCell id="bvYkW9q32mAZwuQwSazU-21" value="" style="endArrow=none;html=1;rounded=0;exitX=0.5;exitY=1;exitDx=0;exitDy=0;entryX=0.5;entryY=0;entryDx=0;entryDy=0;" parent="1" source="rW5Jjkdlr_6XtUSRIuP2-3" target="bvYkW9q32mAZwuQwSazU-18" edge="1">
          <mxGeometry relative="1" as="geometry">
            <mxPoint x="300" y="340" as="sourcePoint" />
            <mxPoint x="300" y="530" as="targetPoint" />
          </mxGeometry>
        </mxCell>
        <mxCell id="bvYkW9q32mAZwuQwSazU-22" value="" style="endArrow=none;html=1;rounded=0;exitX=0;exitY=0.5;exitDx=0;exitDy=0;entryX=1;entryY=0;entryDx=0;entryDy=0;" parent="1" source="bvYkW9q32mAZwuQwSazU-19" target="bvYkW9q32mAZwuQwSazU-34" edge="1">
          <mxGeometry relative="1" as="geometry">
            <mxPoint x="350.15999999999997" y="410" as="sourcePoint" />
            <mxPoint x="270" y="590" as="targetPoint" />
          </mxGeometry>
        </mxCell>
        <mxCell id="bvYkW9q32mAZwuQwSazU-23" value="" style="endArrow=none;html=1;rounded=0;exitX=0;exitY=1;exitDx=0;exitDy=0;entryX=1;entryY=0.5;entryDx=0;entryDy=0;" parent="1" source="rW5Jjkdlr_6XtUSRIuP2-29" target="bvYkW9q32mAZwuQwSazU-19" edge="1">
          <mxGeometry relative="1" as="geometry">
            <mxPoint x="460" y="250" as="sourcePoint" />
            <mxPoint x="460" y="440" as="targetPoint" />
          </mxGeometry>
        </mxCell>
        <mxCell id="bvYkW9q32mAZwuQwSazU-25" value="Descripción" style="ellipse;whiteSpace=wrap;html=1;align=center;" parent="1" vertex="1">
          <mxGeometry x="490" y="60" width="100" height="40" as="geometry" />
        </mxCell>
        <mxCell id="bvYkW9q32mAZwuQwSazU-27" value="" style="endArrow=none;html=1;rounded=0;entryX=0;entryY=0.5;entryDx=0;entryDy=0;exitX=1;exitY=1;exitDx=0;exitDy=0;" parent="1" source="N_7sl9Wl-X2kY1nN6s4H-43" target="bvYkW9q32mAZwuQwSazU-25" edge="1">
          <mxGeometry relative="1" as="geometry">
            <mxPoint x="410" y="70" as="sourcePoint" />
            <mxPoint x="480" y="70" as="targetPoint" />
          </mxGeometry>
        </mxCell>
        <mxCell id="bvYkW9q32mAZwuQwSazU-30" value="" style="endArrow=none;html=1;rounded=0;exitX=0;exitY=0.5;exitDx=0;exitDy=0;entryX=1;entryY=1;entryDx=0;entryDy=0;" parent="1" source="bvYkW9q32mAZwuQwSazU-17" target="bvYkW9q32mAZwuQwSazU-34" edge="1">
          <mxGeometry relative="1" as="geometry">
            <mxPoint x="360" y="810" as="sourcePoint" />
            <mxPoint x="270" y="670" as="targetPoint" />
          </mxGeometry>
        </mxCell>
        <mxCell id="bvYkW9q32mAZwuQwSazU-31" value="&lt;font style=&quot;font-size: 17px;&quot;&gt;M&lt;/font&gt;" style="resizable=0;html=1;whiteSpace=wrap;align=right;verticalAlign=bottom;" parent="bvYkW9q32mAZwuQwSazU-30" connectable="0" vertex="1">
          <mxGeometry x="1" relative="1" as="geometry">
            <mxPoint x="30" y="20" as="offset" />
          </mxGeometry>
        </mxCell>
        <mxCell id="bvYkW9q32mAZwuQwSazU-32" value="" style="endArrow=none;html=1;rounded=0;entryX=0;entryY=0.5;entryDx=0;entryDy=0;exitX=1;exitY=0.5;exitDx=0;exitDy=0;" parent="1" source="bvYkW9q32mAZwuQwSazU-17" target="rW5Jjkdlr_6XtUSRIuP2-36" edge="1">
          <mxGeometry relative="1" as="geometry">
            <mxPoint x="480" y="955" as="sourcePoint" />
            <mxPoint x="430" y="1065" as="targetPoint" />
          </mxGeometry>
        </mxCell>
        <mxCell id="bvYkW9q32mAZwuQwSazU-33" value="&lt;font style=&quot;font-size: 18px;&quot;&gt;1&lt;/font&gt;" style="resizable=0;html=1;whiteSpace=wrap;align=right;verticalAlign=bottom;" parent="bvYkW9q32mAZwuQwSazU-32" connectable="0" vertex="1">
          <mxGeometry x="1" relative="1" as="geometry">
            <mxPoint x="-20" y="20" as="offset" />
          </mxGeometry>
        </mxCell>
        <mxCell id="bvYkW9q32mAZwuQwSazU-34" value="&lt;font style=&quot;font-size: 18px;&quot;&gt;Alquiler&lt;/font&gt;" style="whiteSpace=wrap;html=1;align=center;fillColor=#b0e3e6;strokeColor=#0e8088;" parent="1" vertex="1">
          <mxGeometry x="160" y="590" width="120" height="80" as="geometry" />
        </mxCell>
        <mxCell id="woAcmx-moUH8Gn6lr2lu-1" value="&lt;font style=&quot;font-size: 17px;&quot;&gt;M&lt;/font&gt;" style="resizable=0;html=1;whiteSpace=wrap;align=right;verticalAlign=bottom;" parent="1" connectable="0" vertex="1">
          <mxGeometry x="309.9971356425223" y="599.9993609579399" as="geometry" />
        </mxCell>
      </root>
    </mxGraphModel>
  </diagram>
</mxfile>
